{"title":"Stand Up Guys 2012 BRRip XviD juggs","uid":8348065,"size":740599851,"categoryP":"video","categoryS":"movies","magnet":"?xt=urn:btih:c73b57602d7bf18da2d161f301f53cb97995c118&amp;dn=Stand+Up+Guys+2012+BRRip+XviD+juggs&amp;tr=udp%3A%2F%2Ftracker.openbittorrent.com%3A80&amp;tr=udp%3A%2F%2Fopen.demonii.com%3A1337&amp;tr=udp%3A%2F%2Ftracker.coppersurfer.tk%3A6969&amp;tr=udp%3A%2F%2Fexodus.desync.com%3A6969","seeders":1,"leechers":0,"uploader":"juggs99","files":3,"time":1365258934,"description":"Source : MARKED(Thanks)\n &lt;a href=&quot;\nhttp://www.imdb.com/title/tt1389096/&quot; rel=&quot;nofollow&quot; target=&quot;_NEW&quot;&gt;\nhttp://www.imdb.com/title/tt1389096/&lt;/a&gt;\n\nFormat                                   : AVI\nFormat/Info                              : Audio Video Interleave\nFile size                                : 700 MiB\nDuration                                 : 1h 34mn\nOverall bit rate                         : 1 030 Kbps\nWriting library                          : VirtualDub build 32842/release\n\nVideo\nID                                       : 0\nFormat                                   : MPEG-4 Visual\nFormat profile                           : Advanced Simple@L5\nFormat settings, BVOP                    : 4\nFormat settings, QPel                    : No\nFormat settings, GMC                     : No warppoints\nFormat settings, Matrix                  : Default (H.263)\nMuxing mode                              : Packed bitstream\nCodec ID                                 : XVID\nCodec ID/Hint                            : XviD\nDuration                                 : 1h 34mn\nBit rate                                 : 893 Kbps\nWidth                                    : 640 pixels\nHeight                                   : 272 pixels\nDisplay aspect ratio                     : 2.35:1\nFrame rate                               : 23.976 fps\nColor space                              : YUV\nChroma subsampling                       : 4:2:0\nBit depth                                : 8 bits\nScan type                                : Progressive\nCompression mode                         : Lossy\nBits/(Pixel*Frame)                       : 0.214\nStream size                              : 607 MiB (87%)\nWriting library                          : XviD 1.2.0.dev47 (UTC 2006-11-01)\n\nAudio\nID                                       : 1\nFormat                                   : MPEG Audio\nFormat version                           : Version 1\nFormat profile                           : Layer 3\nCodec ID                                 : 55\nCodec ID/Hint                            : MP3\nDuration                                 : 1h 34mn\nBit rate mode                            : Constant\nBit rate                                 : 128 Kbps\nChannel(s)                               : 2 channels\nSampling rate                            : 44.1 KHz\nCompression mode                         : Lossy\nStream size                              : 86.9 MiB (12%)\nAlignment                                : Split accross interleaves\nInterleave, duration                     : 42 ms (1.00 video frame)\nInterleave, preload duration             : 500 ms\nWriting library                          : LAME3.99r\nEncoding settings                        : -m s -V 4 -q 3 -lowpass 17 -b 128\n &lt;a href=&quot;\nhttp://www.shotpix.com/images/27013830770455038002.png&quot; rel=&quot;nofollow&quot; target=&quot;_NEW&quot;&gt;\nhttp://www.shotpix.com/images/27013830770455038002.png&lt;/a&gt; &lt;a href=&quot;\nhttp://www.shotpix.com/images/96070797384075525994.png&quot; rel=&quot;nofollow&quot; target=&quot;_NEW&quot;&gt;\nhttp://www.shotpix.com/images/96070797384075525994.png&lt;/a&gt; &lt;a href=&quot;\nhttp://www.shotpix.com/images/50841891741309279975.png&quot; rel=&quot;nofollow&quot; target=&quot;_NEW&quot;&gt;\nhttp://www.shotpix.com/images/50841891741309279975.png&lt;/a&gt;","torrent":{"xt":"urn:btih:c73b57602d7bf18da2d161f301f53cb97995c118","amp;dn":"Stand+Up+Guys+2012+BRRip+XviD+juggs","amp;tr":["udp%3A%2F%2Ftracker.openbittorrent.com%3A80","udp%3A%2F%2Fopen.demonii.com%3A1337","udp%3A%2F%2Ftracker.coppersurfer.tk%3A6969","udp%3A%2F%2Fexodus.desync.com%3A6969"],"infoHash":"c73b57602d7bf18da2d161f301f53cb97995c118","infoHashBuffer":{"type":"Buffer","data":[199,59,87,96,45,123,241,141,162,209,97,243,1,245,60,185,121,149,193,24]},"announce":[],"urlList":[]}}